<svg xmlns="http://www.w3.org/2000/svg" xmlns:xlink="http://www.w3.org/1999/xlink" width="376" zoomAndPan="magnify" viewBox="0 0 282 89.999999" height="120" preserveAspectRatio="xMidYMid meet" version="1.0"><defs><g/></defs><path stroke-linecap="butt" transform="matrix(0.75, 0, 0, 0.75, 14.575646, 74.801696)" fill="none" stroke-linejoin="miter" d="M -0.00190364 5.998781 L 148.690813 5.998781 " stroke="#000000" stroke-width="12" stroke-opacity="1" stroke-miterlimit="4"/><g fill="#000000" fill-opacity="1"><g transform="translate(14.575646, 62.344375)"><g><path d="M 31.8125 -7.703125 L 31.8125 0 L 3.53125 0 L 3.53125 -35.234375 L 31.15625 -35.234375 L 31.15625 -27.53125 L 13.390625 -27.53125 L 13.390625 -21.59375 L 29.046875 -21.59375 L 29.046875 -14.140625 L 13.390625 -14.140625 L 13.390625 -7.703125 Z M 31.8125 -7.703125 "/></g></g></g><g fill="#000000" fill-opacity="1"><g transform="translate(52.784875, 62.344375)"><g><path d="M 15.90625 0.703125 C 13.050781 0.703125 10.28125 0.351562 7.59375 -0.34375 C 4.914062 -1.050781 2.738281 -1.992188 1.0625 -3.171875 L 4.328125 -10.515625 C 5.910156 -9.484375 7.738281 -8.644531 9.8125 -8 C 11.894531 -7.363281 13.941406 -7.046875 15.953125 -7.046875 C 19.785156 -7.046875 21.703125 -8.003906 21.703125 -9.921875 C 21.703125 -10.921875 21.15625 -11.664062 20.0625 -12.15625 C 18.96875 -12.644531 17.210938 -13.15625 14.796875 -13.6875 C 12.148438 -14.257812 9.9375 -14.875 8.15625 -15.53125 C 6.375 -16.1875 4.84375 -17.234375 3.5625 -18.671875 C 2.289062 -20.117188 1.65625 -22.066406 1.65625 -24.515625 C 1.65625 -26.660156 2.242188 -28.597656 3.421875 -30.328125 C 4.597656 -32.054688 6.351562 -33.425781 8.6875 -34.4375 C 11.019531 -35.445312 13.878906 -35.953125 17.265625 -35.953125 C 19.578125 -35.953125 21.859375 -35.691406 24.109375 -35.171875 C 26.359375 -34.648438 28.34375 -33.882812 30.0625 -32.875 L 26.984375 -25.46875 C 23.628906 -27.28125 20.375 -28.1875 17.21875 -28.1875 C 15.238281 -28.1875 13.796875 -27.894531 12.890625 -27.3125 C 11.984375 -26.726562 11.53125 -25.960938 11.53125 -25.015625 C 11.53125 -24.078125 12.066406 -23.375 13.140625 -22.90625 C 14.210938 -22.4375 15.941406 -21.953125 18.328125 -21.453125 C 21.015625 -20.878906 23.238281 -20.265625 25 -19.609375 C 26.757812 -18.953125 28.285156 -17.910156 29.578125 -16.484375 C 30.867188 -15.054688 31.515625 -13.117188 31.515625 -10.671875 C 31.515625 -8.554688 30.925781 -6.640625 29.75 -4.921875 C 28.570312 -3.210938 26.804688 -1.847656 24.453125 -0.828125 C 22.109375 0.191406 19.257812 0.703125 15.90625 0.703125 Z M 15.90625 0.703125 "/></g></g></g><g fill="#000000" fill-opacity="1"><g transform="translate(89.735574, 62.344375)"><g><path d="M 19.640625 -35.234375 C 22.828125 -35.234375 25.59375 -34.703125 27.9375 -33.640625 C 30.289062 -32.585938 32.101562 -31.078125 33.375 -29.109375 C 34.65625 -27.148438 35.296875 -24.847656 35.296875 -22.203125 C 35.296875 -19.546875 34.65625 -17.242188 33.375 -15.296875 C 32.101562 -13.359375 30.289062 -11.859375 27.9375 -10.796875 C 25.59375 -9.742188 22.828125 -9.21875 19.640625 -9.21875 L 13.484375 -9.21875 L 13.484375 0 L 3.53125 0 L 3.53125 -35.234375 Z M 19.03125 -17.0625 C 21.070312 -17.0625 22.613281 -17.503906 23.65625 -18.390625 C 24.695312 -19.285156 25.21875 -20.554688 25.21875 -22.203125 C 25.21875 -23.847656 24.695312 -25.125 23.65625 -26.03125 C 22.613281 -26.9375 21.070312 -27.390625 19.03125 -27.390625 L 13.484375 -27.390625 L 13.484375 -17.0625 Z M 19.03125 -17.0625 "/></g></g></g><g fill="#000000" fill-opacity="1"><g transform="translate(131.216943, 62.344375)"><g><path d="M 27.140625 -6.84375 L 12.234375 -6.84375 L 9.46875 0 L -0.703125 0 L 14.84375 -35.234375 L 24.671875 -35.234375 L 40.28125 0 L 29.90625 0 Z M 24.21875 -14.203125 L 19.6875 -25.46875 L 15.15625 -14.203125 Z M 24.21875 -14.203125 "/></g></g></g><g fill="#000000" fill-opacity="1"><g transform="translate(175.165016, 62.344375)"><g><path d="M 3.53125 -35.234375 L 20.1875 -35.234375 C 24.050781 -35.234375 27.472656 -34.507812 30.453125 -33.0625 C 33.441406 -31.625 35.757812 -29.578125 37.40625 -26.921875 C 39.050781 -24.273438 39.875 -21.175781 39.875 -17.625 C 39.875 -14.0625 39.050781 -10.953125 37.40625 -8.296875 C 35.757812 -5.648438 33.441406 -3.601562 30.453125 -2.15625 C 27.472656 -0.71875 24.050781 0 20.1875 0 L 3.53125 0 Z M 19.78125 -7.953125 C 22.800781 -7.953125 25.222656 -8.804688 27.046875 -10.515625 C 28.878906 -12.234375 29.796875 -14.601562 29.796875 -17.625 C 29.796875 -20.644531 28.878906 -23.007812 27.046875 -24.71875 C 25.222656 -26.425781 22.800781 -27.28125 19.78125 -27.28125 L 13.484375 -27.28125 L 13.484375 -7.953125 Z M 19.78125 -7.953125 "/></g></g></g><g fill="#000000" fill-opacity="1"><g transform="translate(221.126711, 62.344375)"><g><path d="M 27.140625 -6.84375 L 12.234375 -6.84375 L 9.46875 0 L -0.703125 0 L 14.84375 -35.234375 L 24.671875 -35.234375 L 40.28125 0 L 29.90625 0 Z M 24.21875 -14.203125 L 19.6875 -25.46875 L 15.15625 -14.203125 Z M 24.21875 -14.203125 "/></g></g></g><g fill="#000000" fill-opacity="1"><g transform="translate(131.852572, 82.108129)"><g><path d="M 2.28125 -6.828125 L 2.28125 -4.109375 L 6.1875 -4.109375 L 6.1875 -3.15625 L 2.28125 -3.15625 L 2.28125 0 L 1.171875 0 L 1.171875 -7.796875 L 6.671875 -7.796875 L 6.671875 -6.828125 Z M 2.28125 -6.828125 "/></g></g></g><g fill="#000000" fill-opacity="1"><g transform="translate(141.689496, 82.108129)"><g><path d="M 4.6875 0.09375 C 3.90625 0.09375 3.195312 -0.078125 2.5625 -0.421875 C 1.925781 -0.773438 1.425781 -1.253906 1.0625 -1.859375 C 0.707031 -2.472656 0.53125 -3.15625 0.53125 -3.90625 C 0.53125 -4.65625 0.707031 -5.332031 1.0625 -5.9375 C 1.425781 -6.539062 1.925781 -7.015625 2.5625 -7.359375 C 3.195312 -7.710938 3.90625 -7.890625 4.6875 -7.890625 C 5.46875 -7.890625 6.171875 -7.710938 6.796875 -7.359375 C 7.429688 -7.015625 7.925781 -6.539062 8.28125 -5.9375 C 8.644531 -5.332031 8.828125 -4.65625 8.828125 -3.90625 C 8.828125 -3.144531 8.644531 -2.460938 8.28125 -1.859375 C 7.925781 -1.253906 7.429688 -0.773438 6.796875 -0.421875 C 6.171875 -0.078125 5.46875 0.09375 4.6875 0.09375 Z M 4.6875 -0.90625 C 5.257812 -0.90625 5.773438 -1.035156 6.234375 -1.296875 C 6.691406 -1.554688 7.050781 -1.910156 7.3125 -2.359375 C 7.570312 -2.816406 7.703125 -3.332031 7.703125 -3.90625 C 7.703125 -4.46875 7.570312 -4.972656 7.3125 -5.421875 C 7.050781 -5.878906 6.691406 -6.238281 6.234375 -6.5 C 5.773438 -6.757812 5.257812 -6.890625 4.6875 -6.890625 C 4.113281 -6.890625 3.59375 -6.757812 3.125 -6.5 C 2.664062 -6.238281 2.304688 -5.878906 2.046875 -5.421875 C 1.785156 -4.972656 1.65625 -4.46875 1.65625 -3.90625 C 1.65625 -3.332031 1.785156 -2.816406 2.046875 -2.359375 C 2.304688 -1.910156 2.664062 -1.554688 3.125 -1.296875 C 3.59375 -1.035156 4.113281 -0.90625 4.6875 -0.90625 Z M 4.6875 -0.90625 "/></g></g></g><g fill="#000000" fill-opacity="1"><g transform="translate(153.809774, 82.108129)"><g><path d="M 6.390625 0 L 4.703125 -2.390625 C 4.492188 -2.378906 4.332031 -2.375 4.21875 -2.375 L 2.28125 -2.375 L 2.28125 0 L 1.171875 0 L 1.171875 -7.796875 L 4.21875 -7.796875 C 5.21875 -7.796875 6.007812 -7.550781 6.59375 -7.0625 C 7.175781 -6.582031 7.46875 -5.921875 7.46875 -5.078125 C 7.46875 -4.472656 7.316406 -3.957031 7.015625 -3.53125 C 6.722656 -3.113281 6.300781 -2.8125 5.75 -2.625 L 7.59375 0 Z M 4.171875 -3.3125 C 4.878906 -3.3125 5.414062 -3.460938 5.78125 -3.765625 C 6.15625 -4.078125 6.34375 -4.515625 6.34375 -5.078125 C 6.34375 -5.640625 6.15625 -6.070312 5.78125 -6.375 C 5.414062 -6.675781 4.878906 -6.828125 4.171875 -6.828125 L 2.28125 -6.828125 L 2.28125 -3.3125 Z M 4.171875 -3.3125 "/></g></g></g><g fill="#000000" fill-opacity="1"><g transform="translate(164.671424, 82.108129)"><g/></g></g><g fill="#000000" fill-opacity="1"><g transform="translate(170.431723, 82.108129)"><g><path d="M 6.828125 -0.96875 L 6.828125 0 L 1.171875 0 L 1.171875 -7.796875 L 6.671875 -7.796875 L 6.671875 -6.828125 L 2.28125 -6.828125 L 2.28125 -4.4375 L 6.1875 -4.4375 L 6.1875 -3.484375 L 2.28125 -3.484375 L 2.28125 -0.96875 Z M 6.828125 -0.96875 "/></g></g></g><g fill="#000000" fill-opacity="1"><g transform="translate(180.658492, 82.108129)"><g><path d="M 7.9375 -7.796875 L 4.515625 0 L 3.421875 0 L -0.015625 -7.796875 L 1.1875 -7.796875 L 4 -1.390625 L 6.828125 -7.796875 Z M 7.9375 -7.796875 "/></g></g></g><g fill="#000000" fill-opacity="1"><g transform="translate(191.353065, 82.108129)"><g><path d="M 6.828125 -0.96875 L 6.828125 0 L 1.171875 0 L 1.171875 -7.796875 L 6.671875 -7.796875 L 6.671875 -6.828125 L 2.28125 -6.828125 L 2.28125 -4.4375 L 6.1875 -4.4375 L 6.1875 -3.484375 L 2.28125 -3.484375 L 2.28125 -0.96875 Z M 6.828125 -0.96875 "/></g></g></g><g fill="#000000" fill-opacity="1"><g transform="translate(201.579834, 82.108129)"><g><path d="M 7.875 -7.796875 L 7.875 0 L 6.96875 0 L 2.28125 -5.8125 L 2.28125 0 L 1.171875 0 L 1.171875 -7.796875 L 2.078125 -7.796875 L 6.765625 -1.984375 L 6.765625 -7.796875 Z M 7.875 -7.796875 "/></g></g></g><g fill="#000000" fill-opacity="1"><g transform="translate(213.388239, 82.108129)"><g><path d="M 2.71875 -6.828125 L 0.046875 -6.828125 L 0.046875 -7.796875 L 6.5 -7.796875 L 6.5 -6.828125 L 3.828125 -6.828125 L 3.828125 0 L 2.71875 0 Z M 2.71875 -6.828125 "/></g></g></g><g fill="#000000" fill-opacity="1"><g transform="translate(222.69052, 82.108129)"><g><path d="M 3.4375 0.09375 C 2.851562 0.09375 2.285156 0.00390625 1.734375 -0.171875 C 1.191406 -0.359375 0.765625 -0.597656 0.453125 -0.890625 L 0.875 -1.765625 C 1.164062 -1.492188 1.539062 -1.273438 2 -1.109375 C 2.46875 -0.941406 2.945312 -0.859375 3.4375 -0.859375 C 4.082031 -0.859375 4.566406 -0.96875 4.890625 -1.1875 C 5.210938 -1.40625 5.375 -1.695312 5.375 -2.0625 C 5.375 -2.332031 5.285156 -2.550781 5.109375 -2.71875 C 4.929688 -2.882812 4.710938 -3.007812 4.453125 -3.09375 C 4.203125 -3.1875 3.84375 -3.285156 3.375 -3.390625 C 2.789062 -3.535156 2.316406 -3.675781 1.953125 -3.8125 C 1.597656 -3.957031 1.289062 -4.175781 1.03125 -4.46875 C 0.769531 -4.757812 0.640625 -5.15625 0.640625 -5.65625 C 0.640625 -6.070312 0.75 -6.445312 0.96875 -6.78125 C 1.1875 -7.113281 1.519531 -7.378906 1.96875 -7.578125 C 2.414062 -7.785156 2.96875 -7.890625 3.625 -7.890625 C 4.09375 -7.890625 4.546875 -7.828125 4.984375 -7.703125 C 5.429688 -7.585938 5.816406 -7.421875 6.140625 -7.203125 L 5.765625 -6.3125 C 5.441406 -6.519531 5.09375 -6.675781 4.71875 -6.78125 C 4.351562 -6.882812 3.988281 -6.9375 3.625 -6.9375 C 3 -6.9375 2.523438 -6.820312 2.203125 -6.59375 C 1.890625 -6.363281 1.734375 -6.066406 1.734375 -5.703125 C 1.734375 -5.429688 1.820312 -5.210938 2 -5.046875 C 2.175781 -4.878906 2.394531 -4.75 2.65625 -4.65625 C 2.925781 -4.5625 3.289062 -4.460938 3.75 -4.359375 C 4.332031 -4.222656 4.800781 -4.082031 5.15625 -3.9375 C 5.507812 -3.800781 5.816406 -3.585938 6.078125 -3.296875 C 6.335938 -3.003906 6.46875 -2.613281 6.46875 -2.125 C 6.46875 -1.71875 6.351562 -1.34375 6.125 -1 C 5.90625 -0.664062 5.566406 -0.398438 5.109375 -0.203125 C 4.660156 -0.00390625 4.101562 0.09375 3.4375 0.09375 Z M 3.4375 0.09375 "/></g></g></g></svg>